<?xml version="1.0"?>
<svg xmlns="http://www.w3.org/2000/svg" xmlns:xlink="http://www.w3.org/1999/xlink" version="1.1" id="Layer_1" x="0px" y="0px" viewBox="0 0 512.001 512.001" style="enable-background:new 0 0 512.001 512.001;" xml:space="preserve" width="512px" height="512px"><g><g>
	<g>
		<circle cx="395.278" cy="83.54" r="38.427" data-original="#000000" class="active-path" data-old_color="#000000" fill="#FFFFFF"/>
	</g>
</g><g>
	<g>
		<path d="M492.545,0.59c-9.404-0.997-17.823,5.819-18.816,15.216l-8.66,81.892l-42.355,55.127c-52.914,0-75.625,0-75.625,0    l-14.961,1.154c-0.667,13.807-9.331,26.574-23.08,31.793l-14.463,5.489l51.393-4.043v122.064l-42.483,175.222    c-2.895,11.941,4.439,23.971,16.381,26.866c11.949,2.896,23.972-4.445,26.866-16.381    c46.621-192.289,43.722-179.093,43.724-183.085h9.627c0,4.537,0,154.152,0,177.848c0,12.288,9.961,22.249,22.249,22.249    s22.249-9.961,22.249-22.249c0-23.284-0.404-285.491-0.404-308.777l50.955-66.24c1.926-2.503,3.121-5.492,3.454-8.633    l9.169-86.696C508.755,10.008,501.943,1.583,492.545,0.59z" data-original="#000000" class="active-path" data-old_color="#000000" fill="#FFFFFF"/>
	</g>
</g><g>
	<g>
		<path d="M312.33,146.198c-3.353-8.835-13.23-13.278-22.069-9.927l-56.533,21.453l-75.472-5.39c0,0-26.361,0-68.97,0L46.931,97.207    l-8.66-81.892C37.277,5.918,28.852-0.909,19.455,0.099C10.057,1.093,3.245,9.517,4.238,18.915l9.169,86.696    c0.333,3.141,1.528,6.129,3.454,8.633l47.909,62.283l-21.892,174.4c-0.386,3.074,0.568,6.167,2.618,8.491    c2.05,2.324,5,3.654,8.099,3.654h13.817v126.678c0,12.288,9.961,22.249,22.249,22.249s22.249-9.961,22.249-22.249V363.074h21.367    l31.983,131.915c2.895,11.944,14.924,19.276,26.866,16.381c11.941-2.895,19.276-14.924,16.381-26.866l-29.441-121.43h12.59    c3.205,0,6.245-1.424,8.296-3.885c2.051-2.462,2.905-5.708,2.328-8.86l-29.856-163.098l62.447,4.912    c2.441,0.191,4.975-0.135,7.412-1.061l60.12-22.814C311.239,164.914,315.684,155.034,312.33,146.198z" data-original="#000000" class="active-path" data-old_color="#000000" fill="#FFFFFF"/>
	</g>
</g><g>
	<g>
		<circle cx="116.721" cy="83.05" r="38.427" data-original="#000000" class="active-path" data-old_color="#000000" fill="#FFFFFF"/>
	</g>
</g></g> </svg>
