<svg id="Layer_1" enable-background="new 0 0 510.582 510.582" height="512" viewBox="0 0 510.582 510.582" width="512" xmlns="http://www.w3.org/2000/svg"><path d="m456.046 142.874c-13.543-2.632-25.642-5.19-41.994-8.519 22.208-34.364-2.262-81.316-44.112-81.316-45.13 0-67.804 51.21-42.148 84.875-7.59 3.175-14.812 7.225-21.692 12.16-5.924-16.736-12.173-28.669-28.223-34.318 11.585-13.432 23.497-27.257 35.122-41.02 8.641-10.23 11.28-23.523 7.059-35.56-7.996-22.803-38.871-33.11-60.041-10.598-14.463 15.377-29.823 31.639-54.378 57.637-2.989-27.061-25.97-48.434-53.952-48.434-48.619 0-73.359 59.775-37.637 93.618-19.716 4.074-41.327 8.514-60.916 12.953-14.882 3.373-25.15 12.643-28.912 26.104-6.719 24.044-13.404 48.586-19.143 69.702-5.408 19.896 3.253 37.614 21.063 43.087 17.626 5.416 44.535-3.206 51.521-22.035 6-16.171 12.365-32.662 18.151-47.6.658-.124 1.317-.247 1.978-.369-3.74 17.87-7.274 34.753-11.257 51.761-2.268 9.685-2.293 18.879-.148 27.395-24.556 43.806-57.769 103.515-82.022 147.283-13.316 24.028 5.516 54.248 33.774 54.248 11.983 0 23.489-5.8 30.53-16.48 21.354-32.391 51.24-81.167 76.09-120.457 5.463 4.949 10.917 9.912 16.298 14.873 1.192 1.101.425-3.11 19.785 91.312 6.07 29.582 39.166 38.624 58.67 22.947 10.599-8.519 15.784-22.7 13.87-37.935-4.326-34.433-8.318-69.042-13.128-103.432-3.051-21.812-16.957-31.213-46.489-64.51 4.717-23.612 9.974-47.49 14.912-71.06 4.327-20.651 6.445-20.534 19.184-35.229 10.071 19.311 19.918 38.127 29.289 55.968 7.343 13.98 17.1 19.118 23.992 20.966 16.641 4.461 29.588-5.155 38.738-10.586-.336 7.627-.689 15.107-1.102 22.57-13.064 16.492-30.7 39.061-44.356 53.646-19.424 20.745-26.043 46.071-18.159 69.485 7.501 22.277 12.416 45.658 18.877 69.364 6.051 22.203 26.615 35.903 51.794 28.679 19.735-5.664 30.476-22.34 29.678-45.333 2.123 9.582 4.212 18.895 6.281 28.007 3.59 15.812 19.322 27.85 36.928 27.849 22.562 0 42.726-19.886 39.522-43.446-3.981-29.267-1.862-11.479-10.507-76.08l29.824-11.754c8.387-3.305 12.397-12.901 8.836-21.197-10.402-24.234-28.175-34.598-38.326-59.34 4.959 4.246 11.158 7.32 18.535 8.549 25.174 4.196 47.066-18.541 51.075-36.036 4.462-19.468 6.03-27.55 10.661-46.684 7.976-32.951-27.53-60.683-53.395-65.71zm-100.964-51.884c12.713-12.571 35.469-4.174 35.307 15.082-.094 11.193-8.907 20.318-20.874 20.318-19.668-.124-26.559-23.407-14.433-35.4zm-187.717-14.627c14.106 14.146 4.196 38.062-15.643 38.06-12.65-.002-22.592-9.715-22.598-22.132-.009-19.746 24.076-30.133 38.241-15.928zm-125.412 383.471c-1.702 2.583-4.731 2.457-6.978 1.184-2.165-1.225-3.512-4.22-2.621-5.828 21.677-39.119 50.522-90.991 73.919-132.812 4.179 3.757 8.362 7.514 14.362 12.894-25.181 39.688-56.815 91.393-78.682 124.562zm152.149-295.861c-13.389 15.201-15.188 31.486-21.923 63.075-3.461 16.234-7.041 33.02-10.333 49.634-1.52 7.669 1.003 16.861 6.277 22.87 11.924 13.588 24.916 26.747 36.145 40.134 5.247 6.254 3.877 5.167 17.364 112.491.611 4.868-.785 7.893-2.167 9.003-.353.284-1.291 1.037-3.823.136-4.732-1.683-1.105 2.72-22.136-94.218-1.502-6.923-5.524-13.938-10.758-18.763-19.066-17.576-38.718-35.019-57.725-52.129-7.584-6.827-9.708-13.752-7.331-23.904 5.847-24.97 10.727-49.568 16.289-75.599 2.125-9.948-5.467-19.344-15.646-19.344-3.011 0-31.743 5.419-35.75 6.227-6.518 1.314-11.901 6.315-14.769 13.718-6.232 16.083-13.287 34.29-19.952 52.234-2.086 2.113-9.425 4.01-12.321 3.12-.58-.193-1.037-.093 19.5-73.588.343-1.227.697-2.495 5.165-3.507 111.904-25.36 124.57-20.577 144.37-41.598 84.764-89.992 80.738-86.341 82.869-85.921 3.273.646 3.196 3.572 1.107 6.044-11.326 13.407-85.639 99.879-94.452 109.885zm284.236 37.082c-4.744 19.598-6.31 27.69-10.75 47.057-.916 3.677-8.844 12.586-14.625 11.627-6.847-1.141-6.136-10.533-6.125-10.626 1.736-14.209 3.978-28.337 6.134-43.41 1.234-8.632-4.67-16.663-13.277-18.059-13.987-2.27-24.261-8.531-33.454-1.65-6.374 4.771-6.287 10.811-7.166 17.808-6.643 52.905-4.146 31.956-4.638 37.03-3.74 13.693-5.5 33.32 9.818 64.42 6.54 13.279 16.981 24.188 25.157 35.17l-23.964 9.445c-6.848 2.699-10.971 9.721-9.991 17.016 8.93 66.719 9.751 70.718 12.176 88.554.278 2.043-1.479 5.542-6.253 6.924-3.485 1.004-6.897-1.637-7.284-2.726-5.902-25.993-11.968-53.647-18.543-84.543-3.308-15.545-13.908-20.069-22.217-21.127-8.319-1.059-20.927-5.683-25.592-5.683-10.297 0-17.922 9.606-15.582 19.636 9.196 39.525 9.278 47.756 12.039 67.188 2.244 15.79-3.601 17.467-6.096 18.183-6.253 1.796-10.252.424-12.094-6.335-6.376-23.392-11.44-47.451-19.423-71.161-5.689-16.895 5.931-31.784 11.19-37.401 13.235-14.135 29.136-34.234 41.913-50.385 5.446-6.872 10.383-11.928 10.851-20.068 1.048-18.208 1.721-36.374 2.563-55.834.556-12.861-13.603-21.111-24.522-14.223-7.426 4.685-25.811 15.193-32.907 19.673-3.723 2.351-5.808 2.544-6.246 2.428-2.073-.555-2.948-2.8-34.95-64.185-1.39-2.667 1.198-8.396 3.863-9.84 3.2-1.732 10.337-.652 11.75 1.78 6.768 11.648 6.215 18.686 15.284 34.304 2.208 3.802 5.883 6.529 10.163 7.538 21.681 5.12 32.377-39.829 104.335-25.446 16.701 3.339 33.237 6.88 50.065 10.151 10.68 2.077 30.971 16.136 28.398 26.77z"/></svg>